<svg width="91" height="91" viewBox="0 0 91 91" fill="none" xmlns="http://www.w3.org/2000/svg">
<rect x="20" y="9" width="50" height="50" rx="25" fill="white"/>
<path d="M39.3777 39.164H31V20.708H39.3777V39.164Z" fill="#3B7DEF"/>
<path d="M52.1555 31.3915H40.2344V31.0176H52.1555V31.3915Z" fill="#161616"/>
<path d="M52.1021 32.5664V32.9492H40.2344V32.5664H52.1021Z" fill="#161616"/>
<path d="M40.2344 34.4989H52.1555V34.125H40.2344V34.4989Z" fill="#161616"/>
<path d="M40.2344 36.0565H52.1555V35.6826H40.2344V36.0565Z" fill="#161616"/>
<path d="M52.2089 37.2402V37.6142H40.2344V37.2402H52.2089Z" fill="#161616"/>
<path d="M40.2344 39.1728H52.2445V38.7988H40.2344V39.1728Z" fill="#161616"/>
<path d="M58.6903 39.1729H58.3164V21.0819H40.6083V31.1067H40.2344V20.708H58.6903V39.1729Z" fill="#161616"/>
<path d="M57.1329 39.1726H56.7589V22.6397H42.1669V31.1331H41.793V22.2568L57.1329 22.2657V39.1726Z" fill="#161616"/>
<path d="M55.5754 39.1731H55.2015V24.1983H43.7255V31.0981H43.3516V23.8154H55.5754V39.1731Z" fill="#161616"/>
<path d="M54.0151 39.1727H53.6412V25.747H45.2724V31.0799H44.8984V25.373H54.0151V39.1727Z" fill="#161616"/>
<path d="M52.4577 39.1723H52.0837V27.3046H46.831V31.1151H46.457V26.9307H52.4666L52.4577 39.1723Z" fill="#161616"/>
<path d="M39.3777 44.2566H31V43.8916H39.3777V44.2566Z" fill="#3B7DEF"/>
<path d="M58.6864 44.2566H40.2305V43.8916H58.6864V44.2566Z" fill="#161616"/>
<path d="M32.1202 42.0348H32.7862L32.461 41.1338H32.4454L32.1202 42.0348ZM31.0626 43.1904L32.1202 40.4483H32.7862L33.8439 43.1904H33.2171L32.982 42.5637H31.9244L31.6893 43.1904H31.0626ZM34.3129 43.1904V40.4483H35.4685C35.7584 40.4483 35.9934 40.5345 36.1736 40.7068C36.3564 40.8792 36.4478 41.0999 36.4478 41.3689C36.4478 41.6379 36.3564 41.8585 36.1736 42.0309C35.9934 42.2033 35.7584 42.2894 35.4685 42.2894H34.9005V43.1904H34.3129ZM34.9005 41.741H35.4489C35.5664 41.741 35.6604 41.7071 35.7309 41.6392C35.8041 41.5687 35.8406 41.4786 35.8406 41.3689C35.8406 41.2592 35.8041 41.1704 35.7309 41.1025C35.6604 41.032 35.5664 40.9967 35.4489 40.9967H34.9005V41.741ZM36.6443 43.1904L37.5844 41.7606L36.7226 40.4483H37.4082L37.9683 41.3493H37.984L38.5442 40.4483H39.2297L38.3679 41.7606L39.3081 43.1904H38.6225L37.984 42.1719H37.9683L37.3298 43.1904H36.6443ZM39.7573 43.1904V40.4483H40.3449V42.2111L41.6768 40.4483H42.2057V43.1904H41.6181V41.4276L40.2862 43.1904H39.7573ZM43.5168 43.1904V40.9967H42.7333V40.4483H44.8878V40.9967H44.1044V43.1904H43.5168ZM45.416 43.1904V40.4483H47.4531V40.9967H46.0036V41.5256H47.1397V42.0544H46.0036V42.642H47.4922V43.1904H45.416ZM48.1192 43.1904V40.4483H48.7068V41.6235L49.7644 40.4483H50.4696L49.451 41.5843L50.5479 43.1904H49.8624L49.0593 42.0152L48.7068 42.3874V43.1904H48.1192Z" fill="#161616"/>
<path d="M51.4692 43.1904V40.9967H50.6858V40.4483H52.8403V40.9967H52.0568V43.1904H51.4692ZM53.3685 43.1904V40.4483H53.9561V42.2111L55.288 40.4483H55.8169V43.1904H55.2293V41.4276L53.8974 43.1904H53.3685ZM56.6187 43.1904V40.4483H57.7743C58.0407 40.4483 58.2535 40.5188 58.4128 40.6598C58.5747 40.7982 58.6557 40.9693 58.6557 41.173C58.6557 41.3506 58.593 41.4994 58.4677 41.6196C58.4076 41.6744 58.3462 41.7149 58.2836 41.741C58.375 41.7671 58.4598 41.8115 58.5382 41.8742C58.7079 42.0178 58.7928 42.1954 58.7928 42.407C58.7928 42.6263 58.7066 42.8118 58.5343 42.9632C58.3645 43.1147 58.1373 43.1904 57.8526 43.1904H56.6187ZM57.2063 42.6812H57.8135C57.9284 42.6812 58.0185 42.6511 58.0838 42.5911C58.1517 42.531 58.1856 42.4501 58.1856 42.3482C58.1856 42.2464 58.1517 42.1654 58.0838 42.1053C58.0185 42.0453 57.9284 42.0152 57.8135 42.0152H57.2063V42.6812ZM57.2063 41.506H57.7351C57.8318 41.506 57.9075 41.4812 57.9623 41.4315C58.0198 41.3793 58.0485 41.3127 58.0485 41.2318C58.0485 41.1508 58.0198 41.0855 57.9623 41.0359C57.9075 40.9837 57.8318 40.9576 57.7351 40.9576H57.2063V41.506Z" fill="#3B7DEF"/>
<path d="M31.172 46.4252L31.3189 46.2783C31.3437 46.311 31.3737 46.339 31.409 46.3626C31.4899 46.4174 31.5807 46.4448 31.6812 46.4448C31.7753 46.4448 31.849 46.4233 31.9026 46.3802C31.9574 46.3358 31.9848 46.2822 31.9848 46.2196C31.9848 46.1621 31.9574 46.1118 31.9026 46.0688C31.8477 46.0257 31.7739 46.0041 31.6812 46.0041H31.505V45.7985H31.6812C31.7596 45.7985 31.8216 45.7802 31.8673 45.7436C31.913 45.7071 31.9359 45.6627 31.9359 45.6104C31.9359 45.5595 31.913 45.5164 31.8673 45.4812C31.8229 45.4446 31.7609 45.4263 31.6812 45.4263C31.5951 45.4263 31.5154 45.4511 31.4423 45.5007C31.4136 45.519 31.3855 45.5432 31.3581 45.5732L31.2112 45.4263C31.2412 45.3924 31.2817 45.3597 31.3326 45.3284C31.4397 45.2631 31.5559 45.2304 31.6812 45.2304C31.8275 45.2304 31.9424 45.265 32.026 45.3343C32.1095 45.4035 32.1513 45.4896 32.1513 45.5928C32.1513 45.6868 32.1154 45.7658 32.0436 45.8298C32.0109 45.8559 31.975 45.8781 31.9359 45.8964C31.9842 45.9134 32.0279 45.9369 32.0671 45.9669C32.1559 46.0348 32.2003 46.1223 32.2003 46.2294C32.2003 46.3417 32.1526 46.4383 32.0573 46.5192C31.962 46.6002 31.8366 46.6407 31.6812 46.6407C31.535 46.6407 31.407 46.6048 31.2973 46.533C31.2451 46.499 31.2033 46.4631 31.172 46.4252ZM32.279 46.6211L32.8274 45.25H33.0625L33.6109 46.6211H33.3857L33.2486 46.2685H32.6414L32.5043 46.6211H32.279ZM32.7197 46.0727H33.1702L32.945 45.5047L32.7197 46.0727ZM34.0422 46.4252H34.3948C34.4574 46.4252 34.5103 46.4037 34.5534 46.3606C34.5978 46.3162 34.62 46.2627 34.62 46.2C34.62 46.1373 34.5978 46.0844 34.5534 46.0413C34.5103 45.9969 34.4574 45.9747 34.3948 45.9747H34.0422V46.4252ZM33.8267 46.6211V45.25H34.7277V45.4557H34.0422V45.7789H34.3948C34.5214 45.7789 34.6265 45.8193 34.7101 45.9003C34.7937 45.9813 34.8355 46.0812 34.8355 46.2C34.8355 46.3188 34.7937 46.4187 34.7101 46.4997C34.6265 46.5806 34.5214 46.6211 34.3948 46.6211H33.8267ZM35.4035 45.5752C35.3056 45.6731 35.2566 45.7932 35.2566 45.9356C35.2566 46.0779 35.3056 46.1987 35.4035 46.2979C35.5028 46.3958 35.6236 46.4448 35.7659 46.4448C35.9082 46.4448 36.0284 46.3958 36.1263 46.2979C36.2255 46.1987 36.2751 46.0779 36.2751 45.9356C36.2751 45.7932 36.2255 45.6731 36.1263 45.5752C36.0284 45.4759 35.9082 45.4263 35.7659 45.4263C35.6236 45.4263 35.5028 45.4759 35.4035 45.5752ZM35.2488 46.437C35.1104 46.2999 35.0412 46.1327 35.0412 45.9356C35.0412 45.7384 35.1104 45.5719 35.2488 45.4361C35.3885 45.299 35.5609 45.2304 35.7659 45.2304C35.9709 45.2304 36.1426 45.299 36.281 45.4361C36.4207 45.5719 36.4906 45.7384 36.4906 45.9356C36.4906 46.1327 36.4207 46.2999 36.281 46.437C36.1426 46.5728 35.9709 46.6407 35.7659 46.6407C35.5609 46.6407 35.3885 46.5728 35.2488 46.437ZM37.0098 46.6211V45.4557H36.5985V45.25H37.6366V45.4557H37.2253V46.6211H37.0098ZM37.5793 46.6211L38.1277 45.25H38.3627L38.9112 46.6211H38.6859L38.5488 46.2685H37.9416L37.8045 46.6211H37.5793ZM38.02 46.0727H38.4705L38.2452 45.5047L38.02 46.0727ZM39.4789 46.6211V45.25H40.0274C40.1475 45.25 40.2461 45.2853 40.3231 45.3558C40.4002 45.4263 40.4387 45.5118 40.4387 45.6124C40.4387 45.6933 40.4106 45.7645 40.3545 45.8259C40.3323 45.8507 40.3048 45.8709 40.2722 45.8866C40.3166 45.9036 40.3558 45.9284 40.3897 45.961C40.4681 46.0289 40.5072 46.1151 40.5072 46.2196C40.5072 46.3293 40.4641 46.4239 40.378 46.5036C40.2931 46.5819 40.186 46.6211 40.0567 46.6211H39.4789ZM39.6944 46.435H40.0567C40.126 46.435 40.1821 46.4135 40.2252 46.3704C40.2696 46.3273 40.2918 46.2738 40.2918 46.2098C40.2918 46.1458 40.2696 46.0923 40.2252 46.0492C40.1821 46.0061 40.126 45.9845 40.0567 45.9845H39.6944V46.435ZM39.6944 45.8082H40.0274C40.0861 45.8082 40.1331 45.7913 40.1684 45.7573C40.205 45.7221 40.2232 45.677 40.2232 45.6222C40.2232 45.5673 40.205 45.5229 40.1684 45.489C40.1331 45.4537 40.0861 45.4361 40.0274 45.4361H39.6944V45.8082ZM41.2215 46.6211V45.25H41.4369V45.916L42.0539 45.25H42.3281L41.7993 45.818L42.3673 46.6211H42.1029L41.6524 45.9747L41.4369 46.2098V46.6211H41.2215ZM42.386 46.6211L42.9345 45.25H43.1695L43.7179 46.6211H43.4927L43.3556 46.2685H42.7484L42.6113 46.6211H42.386ZM42.8267 46.0727H43.2772L43.052 45.5047L42.8267 46.0727ZM43.7379 46.6211L44.3059 45.818L43.7771 45.25H44.0513L44.5899 45.8278V45.25H44.8054V45.8278L45.344 45.25H45.6182L45.0894 45.818L45.6574 46.6211H45.393L44.9425 45.9747L44.8054 46.1216V46.6211H44.5899V46.1216L44.4528 45.9747L44.0023 46.6211H43.7379ZM45.6583 46.9149V46.4154H45.7366C45.781 46.3723 45.8202 46.3155 45.8542 46.245C45.9325 46.0909 45.9717 45.8964 45.9717 45.6613V45.25H46.8629V46.4154H47.0294V46.9149H46.8139V46.6211H45.8738V46.9149H45.6583ZM45.9717 46.4154H46.6474V45.4557H46.1871V45.6613C46.1871 45.8886 46.1512 46.0831 46.0794 46.245C46.0455 46.3168 46.0096 46.3736 45.9717 46.4154ZM47.5476 45.5752C47.4497 45.6731 47.4007 45.7932 47.4007 45.9356C47.4007 46.0779 47.4497 46.1987 47.5476 46.2979C47.6469 46.3958 47.7677 46.4448 47.91 46.4448C48.0523 46.4448 48.1725 46.3958 48.2704 46.2979C48.3696 46.1987 48.4193 46.0779 48.4193 45.9356C48.4193 45.7932 48.3696 45.6731 48.2704 45.5752C48.1725 45.4759 48.0523 45.4263 47.91 45.4263C47.7677 45.4263 47.6469 45.4759 47.5476 45.5752ZM47.3929 46.437C47.2545 46.2999 47.1853 46.1327 47.1853 45.9356C47.1853 45.7384 47.2545 45.5719 47.3929 45.4361C47.5326 45.299 47.705 45.2304 47.91 45.2304C48.115 45.2304 48.2867 45.299 48.4251 45.4361C48.5648 45.5719 48.6347 45.7384 48.6347 45.9356C48.6347 46.1327 48.5648 46.2999 48.4251 46.437C48.2867 46.5728 48.115 46.6407 47.91 46.6407C47.705 46.6407 47.5326 46.5728 47.3929 46.437ZM48.9375 46.6211V45.25H49.153V46.2587L49.9071 45.25H50.1029V46.6211H49.8875V45.6124L49.1334 46.6211H48.9375ZM49.2313 44.7995H49.3782C49.3782 44.8387 49.3913 44.8714 49.4174 44.8975C49.4435 44.9236 49.4762 44.9366 49.5153 44.9366C49.5545 44.9366 49.5872 44.9236 49.6133 44.8975C49.6394 44.8714 49.6524 44.8387 49.6524 44.7995H49.7993C49.7993 44.8779 49.7726 44.9432 49.719 44.9954C49.6655 45.0476 49.5976 45.0737 49.5153 45.0737C49.4331 45.0737 49.3652 45.0476 49.3116 44.9954C49.2581 44.9432 49.2313 44.8779 49.2313 44.7995ZM50.7099 46.9149V46.4154H50.7882C50.8326 46.3723 50.8718 46.3155 50.9058 46.245C50.9841 46.0909 51.0233 45.8964 51.0233 45.6613V45.25H51.9145V46.4154H52.081V46.9149H51.8655V46.6211H50.9253V46.9149H50.7099ZM51.0233 46.4154H51.699V45.4557H51.2387V45.6613C51.2387 45.8886 51.2028 46.0831 51.131 46.245C51.0971 46.3168 51.0611 46.3736 51.0233 46.4154ZM52.325 46.6211V45.25H53.2946V45.4557H52.5405V45.8082H53.1379V46.0139H52.5405V46.4154H53.3142V46.6211H52.325ZM53.8535 46.6211V45.4557H53.4422V45.25H54.4803V45.4557H54.069V46.6211H53.8535ZM54.423 46.6211L54.9714 45.25H55.2065L55.7549 46.6211H55.5297L55.3926 46.2685H54.7854L54.6483 46.6211H54.423ZM54.8637 46.0727H55.3142L55.089 45.5047L54.8637 46.0727ZM55.7651 46.6113V46.4154C55.7781 46.4207 55.7886 46.4239 55.7964 46.4252C55.8199 46.4318 55.8454 46.435 55.8728 46.435C55.9081 46.435 55.9388 46.4252 55.9649 46.4056C55.9923 46.3847 56.0178 46.3482 56.0413 46.296C56.0661 46.2437 56.085 46.1647 56.0981 46.059C56.1111 45.9519 56.1176 45.8193 56.1176 45.6613V45.25H57.048V46.6211H56.8326V45.4557H56.3331V45.6613C56.3331 45.818 56.3259 45.9545 56.3116 46.0707C56.2985 46.1869 56.2796 46.2809 56.2548 46.3528C56.2312 46.4246 56.2012 46.4827 56.1647 46.5271C56.1281 46.5702 56.0896 46.6002 56.0491 46.6172C56.0099 46.6328 55.9642 46.6407 55.912 46.6407C55.8715 46.6407 55.8362 46.6361 55.8062 46.627L55.7651 46.6113ZM57.4397 46.6211V45.25H57.6552V46.2587L58.4093 45.25H58.6051V46.6211H58.3897V45.6124L57.6356 46.6211H57.4397Z" fill="#161616"/>
<path fill-rule="evenodd" clip-rule="evenodd" d="M45.5 0.5C26.8617 0.5 11.75 15.6117 11.75 34.25C11.75 52.8883 45.5 90.5 45.5 90.5C45.5 90.5 79.25 52.8883 79.25 34.25C79.25 15.6117 64.1383 0.5 45.5 0.5ZM45.5 56.75C41.0499 56.75 36.6998 55.4304 32.9997 52.9581C29.2996 50.4857 26.4157 46.9717 24.7127 42.8604C23.0097 38.749 22.5642 34.225 23.4323 29.8605C24.3005 25.4959 26.4434 21.4868 29.5901 18.3401C32.7368 15.1934 36.7459 13.0505 41.1105 12.1823C45.475 11.3142 49.999 11.7597 54.1104 13.4627C58.2217 15.1657 61.7357 18.0496 64.2081 21.7497C66.6804 25.4498 68 29.7999 68 34.25C67.9997 40.2173 65.6291 45.9401 61.4096 50.1596C57.1901 54.3791 51.4673 56.7497 45.5 56.75Z" fill="#3B7DEF"/>
</svg>
