<svg width="83" height="83" viewBox="0 0 83 83" fill="none" xmlns="http://www.w3.org/2000/svg">
<path d="M41.5 5.1875C24.3097 5.1875 10.375 19.1222 10.375 36.3125C10.375 44.9046 13.8563 52.6842 19.4868 58.3163C25.1189 63.9515 38.3875 72.1063 39.1656 80.6656C39.2823 81.949 40.2114 83 41.5 83C42.7886 83 43.7177 81.949 43.8344 80.6656C44.6125 72.1063 57.8811 63.9515 63.5132 58.3163C69.1437 52.6842 72.625 44.9046 72.625 36.3125C72.625 19.1222 58.6903 5.1875 41.5 5.1875Z" fill="#AE612E"/>
<path d="M27.0289 52.5769C27.108 52.3028 27.1659 52.0945 27.2292 51.8916C29.665 44.0702 35.3721 25.5094 35.7623 24.0411C35.9284 23.4164 36.0971 22.7916 36.2658 22.1669C36.4239 21.5843 36.6216 20.9964 36.6216 20.3875C36.6427 20.0843 36.6823 19.7627 36.6322 19.4596C36.5478 18.935 36.2131 18.471 35.7438 18.2259C35.7122 18.2101 35.5066 18.1257 35.4539 18.1046C35.4749 18.0704 35.5303 18.0255 35.5646 18.0124C35.9415 17.8647 38.6778 19.08 39.8588 19.4965C40.9185 19.8682 41.4062 20.6537 41.4563 21.7134C41.4826 22.2802 41.0081 23.991 41.19 24.0385C41.3719 24.0859 41.5538 23.5429 41.6592 23.3689C42.197 22.4542 42.8323 21.7688 43.6469 21.0781C44.3876 20.4508 45.2127 20.0026 46.1828 19.8286C48.3866 19.4385 49.6335 20.9753 49.4226 22.9603C49.383 23.3347 48.9507 24.4734 49.0693 24.5525C49.1669 24.6158 49.5359 24.0042 49.6255 23.8751C50.1765 23.0869 50.7037 22.6677 51.4919 22.1089C52.3038 21.5342 53.1869 21.1625 54.2071 21.1757C55.8388 21.1941 56.9486 22.1932 57.1147 23.8171C57.1938 24.5973 57.1253 25.3697 56.9091 26.121C56.3555 28.0296 55.8019 29.9381 55.2246 31.8414C53.3978 37.8728 49.6915 50.4153 49.3119 50.7923C47.6669 50.9136 43.9948 51.2062 43.6627 51.2457C43.7286 50.9795 47.6511 38.1021 49.5306 31.8783C50.1449 29.8432 50.7459 27.8028 51.3443 25.7599C51.4339 25.4567 51.5077 25.1377 51.5156 24.8241C51.5235 24.5763 51.4629 24.3047 51.3522 24.0833C51.1677 23.7143 50.7406 23.5772 50.3874 23.7986C50.0948 23.9831 49.8233 24.2415 49.6255 24.5262C48.9955 25.433 48.6001 26.4611 48.2785 27.505C47.348 30.5049 46.4464 33.5126 45.5528 36.5231C44.1398 41.2865 41.161 51.1983 41.074 51.4487C39.1892 51.6042 37.3519 51.7439 35.3748 51.9047C35.438 51.6438 39.2314 39.2488 41.0767 33.2227C41.9255 30.4469 42.7611 27.6684 43.5836 24.8847C43.7339 24.3733 43.8077 23.8355 43.8736 23.303C43.9184 22.9471 43.9026 22.5649 43.4887 22.3909C43.1618 22.2538 42.8112 22.3619 42.5265 22.7995C42.139 23.3979 41.7779 24.0227 41.4905 24.6738C40.3728 27.2071 39.5451 29.8458 38.7411 32.4898C37.1752 37.6461 32.8731 51.7571 32.7123 52.1209C31.0278 52.2369 27.3083 52.5611 27.0315 52.5769H27.0289Z" fill="white"/>
<path d="M25.0808 34.1426C24.8699 33.067 24 28.3537 24 28.3537C24 28.3537 29.8521 22.4435 32.8758 19.8575C33.2817 19.5095 33.714 19.1827 34.1701 18.9059C34.41 18.7609 34.7237 18.6818 35.0084 18.6739C35.6885 18.6502 36.0786 19.0298 36.1155 19.7204C36.134 20.0552 36.1103 20.3979 36.0654 20.7301C36.0154 21.1228 35.931 21.513 35.8466 21.9005C35.5989 23.0393 35.069 24.0234 34.2571 24.8529C31.3969 27.7764 25.3049 33.9317 25.0808 34.1426Z" fill="white"/>
</svg>
