<svg width="30" height="30" viewBox="0 0 30 30" fill="none" xmlns="http://www.w3.org/2000/svg">
<path d="M25.5234 20.9205L27.2984 19.2002C27.6764 18.8339 27.8934 18.3324 27.9018 17.806C27.9102 17.2796 27.7092 16.7715 27.3432 16.3933L22.1972 11.0772C21.2765 10.1422 20.0246 9.60806 18.7129 9.59052C17.4012 9.57298 16.1354 10.0735 15.1901 10.9835L14.3977 11.7514C14.257 11.8723 14.1237 12.0015 13.9985 12.1383L11.482 9.53867C11.0875 9.13019 10.5507 8.88963 9.98341 8.86705C9.41611 8.84447 8.86195 9.0416 8.43621 9.41744C8.21451 9.62908 8.03731 9.88291 7.91501 10.164C7.79271 10.4451 7.72777 10.7479 7.72401 11.0544C7.72024 11.361 7.77774 11.6652 7.8931 11.9493C8.00847 12.2333 8.17939 12.4914 8.39583 12.7084L14.8982 19.4258" stroke="#84858A" stroke-width="1.71069" stroke-linecap="round" stroke-linejoin="round"/>
<path d="M15.131 19.6534L13.1117 19.6211C12.5454 19.6133 11.9976 19.8229 11.581 20.2067C11.1643 20.5906 10.9105 21.1196 10.8716 21.685C10.8627 21.9911 10.9151 22.2959 11.0258 22.5814C11.1365 22.8669 11.3033 23.1273 11.5162 23.3473C11.7291 23.5673 11.9839 23.7423 12.2656 23.8622C12.5473 23.982 12.85 24.0442 13.1561 24.045L19.4798 24.1459" stroke="#84858A" stroke-width="1.71069" stroke-linecap="round" stroke-linejoin="round"/>
<path d="M24.116 23.475C24.4551 23.1463 24.4637 22.6048 24.1353 22.2655C23.8068 21.9262 23.2656 21.9176 22.9265 22.2462C22.5874 22.5749 22.5788 23.1164 22.9072 23.4557C23.2357 23.795 23.7768 23.8036 24.116 23.475Z" fill="#84858A"/>
<path d="M13.4209 7.02799C12.9431 6.53598 12.3728 6.1434 11.7427 5.87284C11.1127 5.60229 10.4353 5.4591 9.74976 5.45153C9.06418 5.44396 8.38387 5.57215 7.748 5.82873C7.11213 6.08531 6.53327 6.46521 6.04472 6.94655C5.07641 7.91004 4.52584 9.21607 4.51197 10.5824C4.49811 11.9488 5.02206 13.2657 5.97062 14.2487" stroke="#0069B4" stroke-width="1.71069" stroke-linecap="round" stroke-linejoin="round"/>
</svg>
