<svg width="124" height="118" viewBox="0 0 124 118" fill="none" xmlns="http://www.w3.org/2000/svg">
<path d="M37.0212 82.0803H0V0.523438H37.0212V82.0803Z" fill="#3B7DEF"/>
<path d="M93.492 47.7354H40.8125V46.083H93.492V47.7354Z" fill="white"/>
<path d="M93.256 52.9287V54.6204H40.8125V52.9287H93.256Z" fill="white"/>
<path d="M40.8125 61.4668H93.492V59.8145H40.8125V61.4668Z" fill="white"/>
<path d="M40.8125 68.3496H93.492V66.6973H40.8125V68.3496Z" fill="white"/>
<path d="M93.7281 73.583V75.2354H40.8125V73.583H93.7281Z" fill="white"/>
<path d="M40.8125 82.1211H93.8854V80.4688H40.8125V82.1211Z" fill="white"/>
<path d="M122.369 82.1197H120.717V2.17582H42.4649V46.4754H40.8125V0.523438H122.369V82.1197Z" fill="white"/>
<path d="M115.482 82.1198H113.83V9.06087H49.3477V46.5936H47.6953V7.36914L115.482 7.40849V82.1198Z" fill="white"/>
<path d="M108.595 82.1206H106.943V15.9466H56.2305V46.437H54.5781V14.2549H108.595V82.1206Z" fill="white"/>
<path d="M101.716 82.1185H100.064V22.7901H63.0821V46.3562H61.4297V21.1377H101.716V82.1185Z" fill="white"/>
<path d="M94.8293 82.1193H93.1769V29.6758H69.9649V46.5144H68.3125V28.0234H94.8686L94.8293 82.1193Z" fill="white"/>
<path d="M37.0212 104.585H0V102.972H37.0212V104.585Z" fill="#3B7DEF"/>
<path d="M122.35 104.585H40.793V102.972H122.35V104.585Z" fill="white"/>
<path d="M4.95965 94.0916H7.90247L6.46568 90.1101H6.39644L4.95965 94.0916ZM0.285772 99.1982L4.95965 87.0808H7.90247L12.5764 99.1982H9.80664L8.768 96.4285H4.09412L3.05548 99.1982H0.285772ZM14.6489 99.1982V87.0808H19.7555C21.0365 87.0808 22.0752 87.4616 22.8715 88.2233C23.6793 88.9849 24.0832 89.9601 24.0832 91.1488C24.0832 92.3374 23.6793 93.3126 22.8715 94.0743C22.0752 94.836 21.0365 95.2168 19.7555 95.2168H17.2455V99.1982H14.6489ZM17.2455 92.7933H19.669C20.1883 92.7933 20.6038 92.6433 20.9154 92.3432C21.2385 92.0316 21.4001 91.6335 21.4001 91.1488C21.4001 90.6641 21.2385 90.2717 20.9154 89.9717C20.6038 89.6601 20.1883 89.5043 19.669 89.5043H17.2455V92.7933ZM24.9515 99.1982L29.106 92.8798L25.2977 87.0808H28.327L30.8025 91.0622H30.8717L33.3471 87.0808H36.3765L32.5681 92.8798L36.7227 99.1982H33.6933L30.8717 94.6975H30.8025L27.9808 99.1982H24.9515ZM38.708 99.1982V87.0808H41.3046V94.8706L47.1903 87.0808H49.5272V99.1982H46.9306V91.4084L41.045 99.1982H38.708ZM55.3209 99.1982V89.5043H51.8587V87.0808H61.3796V89.5043H57.9175V99.1982H55.3209ZM63.7138 99.1982V87.0808H72.7154V89.5043H66.3104V91.8412H71.3305V94.1781H66.3104V96.7747H72.8885V99.1982H63.7138ZM75.6589 99.1982V87.0808H78.2555V92.274L82.9294 87.0808H86.0453L81.5445 92.1009L86.3915 99.1982H83.3621L79.8134 94.005L78.2555 95.6496V99.1982H75.6589Z" fill="white"/>
<path d="M90.4629 99.1982V89.5043H87.0007V87.0808H96.5216V89.5043H93.0595V99.1982H90.4629ZM98.8559 99.1982V87.0808H101.452V94.8706L107.338 87.0808H109.675V99.1982H107.078V91.4084L101.193 99.1982H98.8559ZM113.218 99.1982V87.0808H118.325C119.502 87.0808 120.443 87.3924 121.147 88.0155C121.862 88.6272 122.22 89.3831 122.22 90.2832C122.22 91.068 121.943 91.7258 121.389 92.2567C121.124 92.499 120.852 92.6779 120.575 92.7933C120.979 92.9087 121.354 93.1049 121.701 93.3819C122.451 94.0166 122.826 94.8013 122.826 95.7361C122.826 96.7055 122.445 97.5249 121.683 98.1942C120.933 98.8636 119.929 99.1982 118.671 99.1982H113.218ZM115.815 96.9479H118.498C119.006 96.9479 119.404 96.8151 119.692 96.5497C119.993 96.2843 120.143 95.9265 120.143 95.4764C120.143 95.0264 119.993 94.6686 119.692 94.4032C119.404 94.1378 119.006 94.005 118.498 94.005H115.815V96.9479ZM115.815 91.7547H118.152C118.579 91.7547 118.914 91.645 119.156 91.4257C119.41 91.1949 119.537 90.9007 119.537 90.5429C119.537 90.1852 119.41 89.8966 119.156 89.6774C118.914 89.4466 118.579 89.3312 118.152 89.3312H115.815V91.7547Z" fill="#3B7DEF"/>
<path d="M0.766857 113.332L1.41601 112.683C1.52564 112.827 1.65836 112.951 1.81415 113.055C2.17191 113.297 2.57294 113.418 3.01724 113.418C3.4327 113.418 3.75872 113.323 3.9953 113.133C4.23765 112.936 4.35882 112.7 4.35882 112.423C4.35882 112.169 4.23765 111.947 3.9953 111.756C3.75295 111.566 3.42693 111.471 3.01724 111.471H2.23826V110.562H3.01724C3.36346 110.562 3.63754 110.481 3.8395 110.32C4.04146 110.158 4.14244 109.962 4.14244 109.731C4.14244 109.506 4.04146 109.316 3.8395 109.16C3.64331 108.998 3.36923 108.918 3.01724 108.918C2.63641 108.918 2.28443 109.027 1.96129 109.246C1.83435 109.327 1.71029 109.434 1.58911 109.567L0.939963 108.918C1.07268 108.767 1.25156 108.623 1.47659 108.485C1.94975 108.196 2.4633 108.052 3.01724 108.052C3.66351 108.052 4.17129 108.205 4.54058 108.511C4.90988 108.817 5.09453 109.197 5.09453 109.653C5.09453 110.069 4.93584 110.418 4.61848 110.701C4.47423 110.816 4.31554 110.914 4.14244 110.995C4.35594 111.07 4.54924 111.174 4.72235 111.306C5.11472 111.606 5.31091 111.993 5.31091 112.466C5.31091 112.962 5.1003 113.389 4.67907 113.747C4.25784 114.105 3.7039 114.284 3.01724 114.284C2.37098 114.284 1.8055 114.125 1.3208 113.808C1.08999 113.658 0.905342 113.499 0.766857 113.332ZM5.65881 114.197L8.08231 108.139H9.12095L11.5444 114.197H10.5491L9.9432 112.639H7.26005L6.65418 114.197H5.65881ZM7.60626 111.774H9.59699L8.60163 109.264L7.60626 111.774ZM13.4503 113.332H15.0083C15.2852 113.332 15.5189 113.237 15.7093 113.046C15.9055 112.85 16.0036 112.613 16.0036 112.336C16.0036 112.059 15.9055 111.826 15.7093 111.635C15.5189 111.439 15.2852 111.341 15.0083 111.341H13.4503V113.332ZM12.4982 114.197V108.139H16.4797V109.047H13.4503V110.475H15.0083C15.568 110.475 16.0325 110.654 16.4018 111.012C16.7711 111.37 16.9557 111.811 16.9557 112.336C16.9557 112.861 16.7711 113.303 16.4018 113.661C16.0325 114.018 15.568 114.197 15.0083 114.197H12.4982ZM19.4661 109.575C19.0333 110.008 18.817 110.539 18.817 111.168C18.817 111.797 19.0333 112.331 19.4661 112.769C19.9046 113.202 20.4384 113.418 21.0673 113.418C21.6963 113.418 22.2272 113.202 22.6599 112.769C23.0985 112.331 23.3177 111.797 23.3177 111.168C23.3177 110.539 23.0985 110.008 22.6599 109.575C22.2272 109.137 21.6963 108.918 21.0673 108.918C20.4384 108.918 19.9046 109.137 19.4661 109.575ZM18.7823 113.384C18.1707 112.778 17.8649 112.039 17.8649 111.168C17.8649 110.297 18.1707 109.561 18.7823 108.961C19.3997 108.355 20.1614 108.052 21.0673 108.052C21.9733 108.052 22.732 108.355 23.3437 108.961C23.9611 109.561 24.2698 110.297 24.2698 111.168C24.2698 112.039 23.9611 112.778 23.3437 113.384C22.732 113.984 21.9733 114.284 21.0673 114.284C20.1614 114.284 19.3997 113.984 18.7823 113.384ZM26.5642 114.197V109.047H24.7465V108.139H29.3339V109.047H27.5162V114.197H26.5642ZM29.0806 114.197L31.5041 108.139H32.5428L34.9663 114.197H33.9709L33.365 112.639H30.6819L30.076 114.197H29.0806ZM31.0281 111.774H33.0188L32.0234 109.264L31.0281 111.774ZM37.4753 114.197V108.139H39.8988C40.4296 108.139 40.8653 108.294 41.2057 108.606C41.5462 108.918 41.7164 109.295 41.7164 109.74C41.7164 110.098 41.5923 110.412 41.3442 110.683C41.2461 110.793 41.125 110.882 40.9807 110.952C41.1769 111.027 41.35 111.136 41.5 111.28C41.8462 111.58 42.0193 111.961 42.0193 112.423C42.0193 112.908 41.8289 113.326 41.4481 113.678C41.073 114.024 40.5999 114.197 40.0286 114.197H37.4753ZM38.4274 113.375H40.0286C40.3344 113.375 40.5826 113.28 40.773 113.089C40.9692 112.899 41.0673 112.662 41.0673 112.38C41.0673 112.097 40.9692 111.86 40.773 111.67C40.5826 111.479 40.3344 111.384 40.0286 111.384H38.4274V113.375ZM38.4274 110.605H39.8988C40.1584 110.605 40.3662 110.53 40.522 110.38C40.6835 110.224 40.7643 110.025 40.7643 109.783C40.7643 109.541 40.6835 109.345 40.522 109.194C40.3662 109.039 40.1584 108.961 39.8988 108.961H38.4274V110.605ZM45.1755 114.197V108.139H46.1276V111.081L48.854 108.139H50.0658L47.7288 110.649L50.2389 114.197H49.0704L47.0797 111.341L46.1276 112.38V114.197H45.1755ZM50.3217 114.197L52.7452 108.139H53.7838L56.2073 114.197H55.212L54.6061 112.639H51.9229L51.3171 114.197H50.3217ZM52.2691 111.774H54.2599L53.2645 109.264L52.2691 111.774ZM56.2956 114.197L58.8056 110.649L56.4687 108.139H57.6804L60.0606 110.692V108.139H61.0127V110.692L63.393 108.139H64.6047L62.2678 110.649L64.7778 114.197H63.6093L61.6186 111.341L61.0127 111.99V114.197H60.0606V111.99L59.4548 111.341L57.464 114.197H56.2956ZM64.7819 115.496V113.288H65.1281C65.3243 113.098 65.4974 112.847 65.6474 112.535C65.9936 111.855 66.1667 110.995 66.1667 109.956V108.139H70.1049V113.288H70.8406V115.496H69.8885V114.197H65.7339V115.496H64.7819ZM66.1667 113.288H69.1528V109.047H67.1188V109.956C67.1188 110.96 66.9601 111.82 66.6428 112.535C66.4927 112.853 66.3341 113.104 66.1667 113.288ZM73.1309 109.575C72.6981 110.008 72.4817 110.539 72.4817 111.168C72.4817 111.797 72.6981 112.331 73.1309 112.769C73.5694 113.202 74.1032 113.418 74.7321 113.418C75.3611 113.418 75.8919 113.202 76.3247 112.769C76.7632 112.331 76.9825 111.797 76.9825 111.168C76.9825 110.539 76.7632 110.008 76.3247 109.575C75.8919 109.137 75.3611 108.918 74.7321 108.918C74.1032 108.918 73.5694 109.137 73.1309 109.575ZM72.4471 113.384C71.8355 112.778 71.5296 112.039 71.5296 111.168C71.5296 110.297 71.8355 109.561 72.4471 108.961C73.0645 108.355 73.8262 108.052 74.7321 108.052C75.638 108.052 76.3968 108.355 77.0085 108.961C77.6259 109.561 77.9346 110.297 77.9346 111.168C77.9346 112.039 77.6259 112.778 77.0085 113.384C76.3968 113.984 75.638 114.284 74.7321 114.284C73.8262 114.284 73.0645 113.984 72.4471 113.384ZM79.2728 114.197V108.139H80.2249V112.596L83.5572 108.139H84.4227V114.197H83.4706V109.74L80.1383 114.197H79.2728ZM80.5711 106.148H81.2202C81.2202 106.321 81.2779 106.465 81.3933 106.581C81.5087 106.696 81.653 106.754 81.8261 106.754C81.9992 106.754 82.1435 106.696 82.2589 106.581C82.3743 106.465 82.432 106.321 82.432 106.148H83.0811C83.0811 106.494 82.9628 106.783 82.7263 107.013C82.4897 107.244 82.1896 107.36 81.8261 107.36C81.4626 107.36 81.1625 107.244 80.926 107.013C80.6894 106.783 80.5711 106.494 80.5711 106.148ZM87.1049 115.496V113.288H87.4511C87.6473 113.098 87.8204 112.847 87.9704 112.535C88.3166 111.855 88.4897 110.995 88.4897 109.956V108.139H92.4279V113.288H93.1636V115.496H92.2115V114.197H88.0569V115.496H87.1049ZM88.4897 113.288H91.4758V109.047H89.4418V109.956C89.4418 110.96 89.2831 111.82 88.9657 112.535C88.8157 112.853 88.657 113.104 88.4897 113.288ZM94.2421 114.197V108.139H98.5265V109.047H95.1942V110.605H97.8341V111.514H95.1942V113.288H98.6131V114.197H94.2421ZM100.997 114.197V109.047H99.179V108.139H103.766V109.047H101.949V114.197H100.997ZM103.513 114.197L105.937 108.139H106.975L109.399 114.197H108.403L107.798 112.639H105.114L104.508 114.197H103.513ZM105.461 111.774H107.451L106.456 109.264L105.461 111.774ZM109.444 114.154V113.288C109.501 113.312 109.548 113.326 109.582 113.332C109.686 113.361 109.799 113.375 109.92 113.375C110.076 113.375 110.211 113.332 110.327 113.245C110.448 113.153 110.56 112.991 110.664 112.76C110.774 112.53 110.857 112.181 110.915 111.713C110.973 111.24 111.002 110.654 111.002 109.956V108.139H115.113V114.197H114.161V109.047H111.954V109.956C111.954 110.649 111.922 111.252 111.859 111.765C111.801 112.279 111.717 112.694 111.608 113.011C111.504 113.329 111.371 113.586 111.209 113.782C111.048 113.972 110.878 114.105 110.699 114.18C110.526 114.249 110.324 114.284 110.093 114.284C109.914 114.284 109.758 114.264 109.625 114.223L109.444 114.154ZM116.844 114.197V108.139H117.796V112.596L121.128 108.139H121.994V114.197H121.042V109.74L117.71 114.197H116.844Z" fill="white"/>
</svg>
